<?xml version="1.0" ?><svg enable-background="new 0 0 32 32" version="1.1" viewBox="0 0 32 32" xml:space="preserve" xmlns="http://www.w3.org/2000/svg" xmlns:xlink="http://www.w3.org/1999/xlink"><g id="Flat_copy"><g><g><path d="M16,31.62c-8.615,0-15.625-7.01-15.625-15.625S7.385,0.37,16,0.37s15.625,7.01,15.625,15.625     S24.615,31.62,16,31.62z" fill="#FFFFFF"/><path d="M16,0.745c8.409,0,15.25,6.841,15.25,15.25S24.409,31.245,16,31.245S0.75,24.404,0.75,15.995     S7.591,0.745,16,0.745 M16-0.005c-8.837,0-16,7.163-16,16c0,8.836,7.163,16,16,16s16-7.164,16-16C32,7.158,24.837-0.005,16-0.005     L16-0.005z" fill="#E5E5E5"/></g></g><path d="M16.184,6.59v4.411h4.411v2.757h-4.411v4.411c0,1.024,0.098,1.847,0.206,2.138   c0.109,0.29,0.31,0.522,0.606,0.697c0.392,0.235,0.838,0.353,1.342,0.353c0.895,0,1.936-0.304,2.809-0.982v2.757   c-0.735,0.46-1.578,0.745-2.191,0.888c-0.612,0.142-1.274,0.214-1.986,0.214c-0.744,0-1.462-0.082-2.143-0.307   c-0.621-0.204-0.968-0.43-1.407-0.807c-0.438-0.378-0.651-0.758-0.82-1.184c-0.169-0.424-0.276-1.306-0.276-2.114v-6.065h-2.205   v-2.757c0.706-0.052,1.29-0.251,1.783-0.67c0.497-0.422,0.894-0.928,1.192-1.518c0.3-0.591,0.333-1.314,0.333-2.222H16.184z" fill="#333333"/></g></svg>